# xmcd CD database file
#
# Track frame offsets:
#	150
#	23852
#	41280
#	58459
#
# Disc length: 1123 seconds
#
# Revision: 2
# Processed by: cddbd v1.5.1PL0 Copyright (c) Steve Scherf et al.
# Submitted via: CDex 1.51
#
DISCID=2f046104
DTITLE=ORANGE RANGE - ミチシルベ〜a road home〜
DYEAR=2004
DGENRE=JPop
TTITLE0=ミチシルベ〜a road home〜
TTITLE1=Zung Zung Funky Music
TTITLE2=山内公園
TTITLE3=ミチシルベ〜a road home・ryukyudisco remix〜
EXTD=YEAR: 2004
EXTT0=
EXTT1=
EXTT2=
EXTT3=
PLAYORDER=
